<svg xmlns="http://www.w3.org/2000/svg" viewBox="0 0 1200 620" role="img" aria-label="World map">
  <g fill="currentColor">
    <path d="M64 155 91 109l55-35 75-13 64 20 41 33 46 9 35 33-11 35-47 16-27 33-54 7-23 43-44-2-31-31-53-11-38-37-42-8-17-25 40-25Z"/>
    <path d="m283 301 39 18 32 44 7 48 28 40-12 55-31 58-24 16-13-46-21-43-11-50-24-39 4-52-23-27 49-22Z"/>
    <path d="m501 130 44-26 61 2 30 20 44-8 45 19 28-8 38 18 45-7 53 24 61-5 44 30-16 31-58 7-39 27-48-10-36 20-51-4-33 24-44-9-27-34-48-8-31-30-42-7-35-29 15-37Z"/>
    <path d="m555 277 45-15 45 15 32 42 16 57-18 61-39 57-36-10-20-46-26-36-13-53-25-35 39-37Z"/>
    <path d="m837 364 41-24 53 8 29 26 47 11 33 39-19 35-46 8-37-15-41 18-45-20-31-39 16-47Z"/>
    <path d="m1018 238 22-14 25 10 8 21-22 12-26-8-7-21Z"/>
  </g>
</svg>
