<svg xmlns="http://www.w3.org/2000/svg" viewBox="0 0 900 600"><path fill="#fff" d="M0 0h900v600H0z"/><g transform="translate(450 300) rotate(34)"><path fill="#cd2e3a" d="M-150 0a150 150 0 0 1 300 0 75 75 0 0 1-150 0 75 75 0 0 0-150 0z"/><path fill="#0047a0" d="M-150 0a150 150 0 0 0 300 0 75 75 0 0 0-150 0 75 75 0 0 1-150 0z"/></g><g stroke="#000" stroke-width="18"><path d="m160 130 120 90m-95-123 120 90m-70-123 120 90M545 446l120 90m-95-123 120 90m-70-123 120 90M660 80l-38 51m-17 23-38 51m145-86-38 51m-17 23-38 51m145-86-38 51m-17 23-38 51M130 405l-38 51m-17 23-38 51m145-86-93 125m145-86-38 51m-17 23-38 51"/></g></svg>
